<svg xmlns="http://www.w3.org/2000/svg" version="1.1"
    xmlns:xlink="http://www.w3.org/1999/xlink" width="512" height="512" x="0" y="0" viewBox="0 0 4286 4133" style="enable-background:new 0 0 512 512" xml:space="preserve" fill-rule="evenodd" class="">
    <g>
        <path fill="#ced3db" d="M3138 1822c36 48 62 103 76 165 58 263-122 506-361 595 12 150-20 282-99 391 28 34 51 71 68 112 3 7 5 12 7 19 66 226-4 390-156 500 14 71 11 146-7 223-1 2-1 4-2 7-6 22-14 43-23 62 5 30 2 62-9 94-24 68-80 114-152 123-74 10-148 16-222 19-23 1-45 1-68 1s-45 0-68-1c-8 0-17-1-25-1-56-2-113-7-168-14-71-9-128-53-153-120-13-35-16-70-9-104-9-19-16-38-22-59-1-2-1-4-2-7-18-77-21-152-7-223-152-110-222-275-156-500 2-7 4-12 7-19 17-41 40-78 68-112-79-108-111-241-99-391-239-90-419-332-361-596 13-61 39-115 74-163-75-4-150-26-212-68-41-27-75-61-101-100-53-4-105-18-151-40-21-10-42-22-61-36-35-25-62-54-82-86-87-5-176-27-254-59-13-5-25-11-37-17-45-21-89-47-128-78-78-62-149-156-148-259 1-98 77-179 176-186 93-6 185-4 278-4 223 0 735 23 930-61 55-24 109-48 167-65 56-17 113-25 168-24-36-64-56-137-56-213 0-239 194-434 434-434 239 0 434 194 434 434 0 75-20 148-55 212 115-2 229 45 334 91 194 85 707 61 930 61 93 0 185-2 278 4 98 7 174 87 176 186 1 104-70 197-148 259-39 31-83 57-128 78-12 6-25 11-37 17-78 32-167 54-254 59-20 32-47 60-82 86-19 14-40 26-62 36-46 22-98 35-151 40-26 39-60 72-101 100-55 37-119 58-185 65z" opacity="1" data-original="#ced3db"></path>
        <path fill="#ffffff" d="M3044 1727c36 48 62 103 76 165 58 264-122 506-361 596 12 150-20 282-99 391 28 34 51 71 68 112 3 7 5 12 7 19 66 226-4 390-156 500 14 71 11 146-7 223-1 2-1 4-2 7-6 22-14 43-23 62 5 30 2 62-9 94-24 68-80 114-152 123-74 10-148 16-222 19-23 1-45 1-68 1s-45 0-68-1c-8 0-17-1-25-1-56-2-113-7-168-14-71-9-128-53-153-120-13-35-16-70-9-104-9-19-16-38-22-59-1-2-1-4-2-7-18-77-21-152-7-223-152-110-222-275-156-500 2-7 4-12 7-19 17-41 40-78 68-112-79-108-111-241-99-391-239-90-419-332-361-596 13-61 39-116 74-163-75-4-150-26-212-68-41-27-75-61-101-100-53-4-105-18-151-40-21-10-42-22-61-36-35-25-62-54-82-86-87-5-176-27-254-59-13-5-25-11-37-17-45-21-89-47-128-78C71 1183 0 1090 1 986c1-98 77-179 176-186 93-6 185-4 278-4 223 0 735 23 930-61 55-24 109-48 167-65 56-17 113-25 168-24-36-64-56-137-56-213 0-239 194-434 434-434 239 0 434 194 434 434 0 75-20 148-55 212 115-2 229 45 334 91 194 85 707 61 930 61 93 0 185-2 278 4 98 7 174 87 176 186 1 104-70 197-148 259-39 31-83 57-128 78-12 6-25 11-37 17-78 32-167 54-254 59-20 32-47 60-82 86-19 14-40 26-62 36-46 22-98 35-151 40-26 39-60 72-101 100-55 37-119 58-185 65z" opacity="1" data-original="#ffffff" class=""></path>
        <path fill="#ff7069" d="M4003 990c1 39-57 93-77 110-33 27-75 49-119 68-82 34-185 54-276 43-12-1-31-6-41-6-5 71-19 113-90 148-42 20-99 27-146 20-12-2-39-11-46-10-22 187-229 212-347 145-18-10-34-25-48-32-8 20-20 112-80 140-38 18-95 18-137 5-14-4-28-14-39-16-22 22-34 38-73 46-62 13-138-11-197-31-27-9-66-17-94-27l13-547c46-1 66 8 97-28 21-24 30-63 44-96 70-160 284-55 386-11 230 100 734 77 1005 77 87 0 179-2 265 4zM189 990c-1 39 57 93 77 110 33 27 75 49 119 68 82 34 185 54 276 43 12-1 31-6 41-6 5 71 19 113 90 148 42 20 99 27 146 20 12-2 39-11 46-10 22 187 229 212 347 145 18-10 34-25 48-32 8 20 20 112 80 140 38 18 95 18 137 5 14-4 28-14 39-16 22 22 34 38 73 46 62 13 138-11 197-31 27-9 66-17 94-27l-13-547c-46-1-66 8-97-28-21-24-30-63-44-96-70-160-284-55-386-11-230 100-734 77-1005 77-87 0-179-2-265 4z" opacity="1" data-original="#ff7069" class=""></path>
        <path fill="#f7635b" d="M356 1154c10 5 19 9 29 13 82 34 185 54 276 43 12-1 31-6 41-6 0 0 494-20 802-173-89 39-825 205-1149 122zm404 179c9 7 20 13 33 19 42 20 99 27 146 20 12-2 39-11 46-10 0 0 330-56 621-239 0 0-485 237-846 210zm308 172c77 51 189 46 265 3 18-10 34-25 48-32 0 0 173-74 304-258 0 0-374 358-616 287zm503 122 27-6c14-4 28-14 39-16 0 0 85-110 50-227 0 0-11 177-116 250z" opacity="1" data-original="#f7635b"></path>
        <path fill="#f2f2f2" d="m1964 640 71 3209c20 1 41 1 62 1s41 0 62-1l71-3209c68-44 113-120 113-206 0-135-110-245-245-245s-245 110-245 245c0 87 45 163 113 206zm132-320c54 0 98 44 98 98s-44 98-98 98-98-44-98-98 44-98 98-98z" opacity="1" data-original="#f2f2f2" class=""></path>
        <path fill="#b9c1c9" d="M2228 640s-27 10-70 21l3 3059 68-3080z" opacity="1" data-original="#b9c1c9"></path>
        <path fill="#75bd80" d="M2017 3639c46 67 254 97 342 193-86 12-174 18-264 18-28 0-57-1-85-2-80-32-157-78-179-158-47-203 63-283 190-337l5 189c-26 24-33 55-10 98zm154-343c76-31 135-67 134-134 0-69-45-99-92-124-196-116-636-124-557-594 44-152 178-215 336-247l6 259c-55 22-94 51-106 92-54 184 257 237 365 283 106 45 249 122 295 233 88 300-195 357-387 416l4-182zm28-1128c209-21 418-32 506-145 37-46-30-143-129-73-3 2-358 161-307-20 6-22 40-81 52-99 95-138 352-137 485-64 259 142 121 519-194 565-97 36-268 49-419 74l6-239z" opacity="1" data-original="#75bd80" class=""></path>
        <path fill="#ffffff" d="M2366 1868c6-54 51-63 57-47 10 26-34 44-57 47z" opacity="1" data-original="#ffffff" class=""></path>
        <path fill="#83cf8f" d="M2203 3639c-9 13-23 24-42 35l-1 46c52 21 107 43 152 73 36-26 63-60 75-103 97-417-474-317-473-528 0-69 45-99 92-124l8-4-2-78c-55-20-111-42-162-70-78 45-153 104-184 178-140 480 668 338 537 577zm-192 209c-52-2-103-7-153-13 14-16 31-30 50-42 30 23 67 40 104 55zm359-964c134-74 235-194 193-440-118-403-858-180-1048-421-37-46 30-143 129-73 3 2 358 161 307-20-6-22-40-81-52-99-95-138-352-137-485-64-259 142-121 519 194 565 192 70 670 54 717 215 29 99-48 160-142 203l-1 54c30 10 56 18 76 27 34 15 73 33 111 54z" opacity="1" data-original="#83cf8f"></path>
        <path fill="#ffffff" d="M1854 1868c-6-54-51-63-57-47-10 26 34 44 57 47z" opacity="1" data-original="#ffffff" class=""></path>
        <path fill="#ed4c54" d="m2234 1604-22-6 14-554h25zM1979 1600l-20 4-19-559c9 0 18-3 25-3l14 559z" opacity="1" data-original="#ed4c54"></path>
        <path fill="#f7635b" d="M3836 1154c-10 5-19 9-29 13-82 34-185 54-276 43-12-1-31-6-41-6 0 0-494-20-802-173 89 39 825 205 1149 122zm-404 179c-9 7-20 13-33 19-42 20-99 27-146 20-12-2-39-11-46-10 0 0-330-56-621-239 0 0 485 237 846 210zm-308 172c-77 51-189 46-265 3-18-10-34-25-48-32 0 0-173-74-304-258 0 0 374 358 616 287zm-503 122-27-6c-14-4-28-14-39-16 0 0-85-110-50-227 0 0 11 177 116 250z" opacity="1" data-original="#f7635b"></path>
        <g fill="#fefefe">
            <path d="m1957 2021 75 27-59-10 34 53-83-80 16-10zM2263 2021l-75 27 59-10-33 53 83-80-16-10z" fill="#fefefe" opacity="1" data-original="#fefefe"></path>
        </g>
    </g>
</svg>